<svg xmlns="http://www.w3.org/2000/svg" version="1.1" viewBox="-5.0 -10.0 110.0 110.0">
    <g fill="#0A3F6D">
        <path d="m40 13c-7.1602 0-14.027 2.8438-19.094 7.9062-5.0625 5.0664-7.9062 11.934-7.9062 19.094s2.8438 14.027 7.9062 19.094c5.0664 5.0625 11.934 7.9062 19.094 7.9062s14.027-2.8438 19.094-7.9062c5.0625-5.0664 7.9062-11.934 7.9062-19.094s-2.8438-14.027-7.9062-19.094c-5.0664-5.0625-11.934-7.9062-19.094-7.9062zm0 50c-6.1016 0-11.949-2.4219-16.262-6.7383-4.3164-4.3125-6.7383-10.16-6.7383-16.262s2.4219-11.949 6.7383-16.262c4.3125-4.3164 10.16-6.7383 16.262-6.7383s11.949 2.4219 16.262 6.7383c4.3164 4.3125 6.7383 10.16 6.7383 16.262s-2.4219 11.949-6.7383 16.262c-4.3125 4.3164-10.16 6.7383-16.262 6.7383z"/>
        <path d="m48 33.25h-1.25v-3.25c0-0.46484-0.18359-0.91016-0.51172-1.2383s-0.77344-0.51172-1.2383-0.51172h-10c-0.96484 0-1.75 0.78516-1.75 1.75v3.25h-1.25c-2.0703 0-3.75 1.6797-3.75 3.75v11c0 2.0703 1.6797 3.75 3.75 3.75h16c0.99609 0 1.9492-0.39453 2.6523-1.0977s1.0977-1.6562 1.0977-2.6523v-11c0-0.99609-0.39453-1.9492-1.0977-2.6523s-1.6562-1.0977-2.6523-1.0977zm-11.25-1.5h6.5v1.5h-6.5zm11.5 16.25c0 0.066406-0.027344 0.12891-0.074219 0.17578s-0.10938 0.074219-0.17578 0.074219h-16c-0.13672 0-0.25-0.11328-0.25-0.25v-11c0-0.13672 0.11328-0.25 0.25-0.25h16c0.066406 0 0.12891 0.027344 0.17578 0.074219s0.074219 0.10938 0.074219 0.17578z"/>
        <path d="m92.379 82.828-21.898-21.887c7.043-10.246 8.4805-23.34 3.8242-34.867-4.6562-11.527-14.785-19.953-26.965-22.43-12.184-2.4805-24.797 1.3164-33.59 10.105-8.7891 8.793-12.586 21.406-10.105 33.59 2.4766 12.18 10.902 22.309 22.43 26.965 11.527 4.6562 24.621 3.2188 34.867-3.8242l21.891 21.898h-0.003906c2.6406 2.6367 6.9141 2.6367 9.5508 0 2.6367-2.6367 2.6367-6.9102 0-9.5508zm-85.379-42.828c0-8.7539 3.4766-17.145 9.6641-23.336 6.1914-6.1875 14.582-9.6641 23.336-9.6641s17.145 3.4766 23.336 9.6641c6.1875 6.1914 9.6641 14.582 9.6641 23.336s-3.4766 17.145-9.6641 23.336c-6.1914 6.1875-14.582 9.6641-23.336 9.6641s-17.145-3.4766-23.336-9.6641c-6.1875-6.1914-9.6641-14.582-9.6641-23.336zm82.898 49.898c-1.2812 1.2305-3.3047 1.2305-4.5898 0l-21.559-21.559c1.6602-1.3906 3.1992-2.9297 4.5898-4.5898l21.559 21.559c0.61328 0.60938 0.95312 1.4336 0.95312 2.2969 0 0.85938-0.33984 1.6875-0.95312 2.293z"/>
    </g>
</svg>